# This file uses centimeters as units for non-parametric coordinates.

mtllib insideEdge.mtl
g default
v -11.092042 0.000000 -23.567783
v 42.151775 0.000000 -23.567783
v -11.092042 0.000000 -23.699955
v 42.151775 0.000000 -23.699955
v -12.231445 0.000000 25.703714
v 41.012371 0.000000 25.703714
v -12.231445 0.000000 25.571543
v 41.012371 0.000000 25.571543
v -25.270737 0.000000 12.164296
v -25.270737 0.000000 -12.397769
v -25.337196 0.000000 12.164296
v -25.337196 0.000000 -12.397769
v 54.691879 0.000000 12.336109
v 54.691879 0.000000 -10.197973
v 54.658463 0.000000 12.336109
v 54.658463 0.000000 -10.197973
v 53.201023 0.000000 -16.062014
v 50.490993 0.000000 -20.309492
v 53.172848 0.000000 -16.044039
v 50.462818 0.000000 -20.291517
v 47.708065 0.000000 -22.370562
v 45.095657 0.000000 -23.306385
v 47.696793 0.000000 -22.339100
v 45.084385 0.000000 -23.274923
v -15.455998 0.000000 25.359873
v -17.269842 0.000000 24.865131
v -15.464791 0.000000 25.392113
v -17.278637 0.000000 24.897371
v -21.219837 0.000000 -20.011713
v -16.935495 0.000000 -22.350266
v -21.235849 0.000000 -20.041046
v -16.951508 0.000000 -22.379599
v -19.447058 0.000000 23.568119
v -21.018869 0.000000 22.055689
v -19.470228 0.000000 23.592199
v -21.042040 0.000000 22.079769
v -22.969198 0.000000 19.304077
v -24.268208 0.000000 16.342276
v -22.999802 0.000000 19.317499
v -24.298811 0.000000 16.355698
v -24.419394 0.000000 -15.551715
v -23.431578 0.000000 -17.507679
v -24.449224 0.000000 -15.566780
v -23.461409 0.000000 -17.522743
v 52.350994 0.000000 19.900482
v 53.615093 0.000000 18.170141
v 52.324009 0.000000 19.880770
v 53.588108 0.000000 18.150429
v 49.175575 0.000000 22.904324
v 51.135323 0.000000 21.418163
v 49.155380 0.000000 22.877697
v 51.115128 0.000000 21.391537
v 44.746349 0.000000 24.921696
v 46.971256 0.000000 24.102871
v 44.734806 0.000000 24.890335
v 46.959713 0.000000 24.071510
v -15.188735 -0.000000 25.503246
v -12.392420 -0.000000 25.715099
v -15.187849 0.000000 25.491554
v -12.391534 0.000000 25.703407
v -24.413210 -0.000000 16.287428
v -24.372063 -0.000000 16.277555
v -25.410564 0.000000 12.130884
v -25.369417 0.000000 12.121011
v -20.924919 -0.000000 22.324184
v -20.890488 -0.000000 22.299589
v -23.043674 0.000000 19.357939
v -23.009243 0.000000 19.333344
v -16.932632 -0.000000 25.105473
v -16.908588 -0.000000 25.071655
v -19.720699 0.000000 23.556087
v -19.696655 0.000000 23.522270
v -17.006519 -0.000000 -22.363878
v -10.806354 -0.000000 -23.822777
v -17.028727 0.000000 -22.458263
v -10.828563 0.000000 -23.917162
v -23.837404 -0.000000 -17.021429
v -20.893764 -0.000000 -20.304289
v -23.909595 0.000000 -17.086161
v -20.965956 0.000000 -20.369020
v -25.490452 -0.000000 -11.768873
v -24.174534 -0.000000 -15.977262
v -25.582996 0.000000 -11.797811
v -24.267078 0.000000 -16.006199
v 54.692913 -0.000000 -10.350801
v 54.732964 -0.000000 -10.361788
v 53.142593 0.000000 -16.002090
v 53.182644 0.000000 -16.013077
v 50.633545 0.000000 -20.118967
v 50.658859 0.000000 -20.151894
v 47.513954 0.000000 -22.517075
v 47.539268 0.000000 -22.550001
v 45.285866 0.000000 -23.277843
v 45.304447 0.000000 -23.310009
v 42.146824 0.000000 -23.748871
v 42.165405 0.000000 -23.781036
v 53.627758 -0.000000 18.390549
v 53.627758 -0.000000 18.390549
v 54.778530 -0.000000 12.198437
v 54.778530 -0.000000 12.198437
v 51.131721 -0.000000 21.536137
v 51.131721 -0.000000 21.536137
v 52.357971 -0.000000 20.075489
v 52.357971 -0.000000 20.075489
v 46.713676 -0.000000 24.315653
v 46.713676 -0.000000 24.315653
v 49.545410 -0.000000 22.793364
v 49.545410 -0.000000 22.793364
v 40.544483 0.000000 25.749889
v 40.544483 0.000000 25.749889
v 45.627079 0.000000 24.784420
v 45.627079 0.000000 24.784420
vt 0.000000 0.000000
vt 1.000000 0.000000
vt 0.000000 0.008043
vt 1.000000 0.008043
vt 0.000000 0.000000
vt 1.000000 0.000000
vt 0.000000 0.008043
vt 1.000000 0.008043
vt 0.000000 0.000000
vt 1.000000 0.000000
vt 0.000000 0.008043
vt 1.000000 0.008043
vt 0.000000 0.000000
vt 1.000000 0.000000
vt 0.000000 0.008043
vt 1.000000 0.008043
vt 0.000000 0.000000
vt 1.000000 0.000000
vt 0.000000 0.008043
vt 1.000000 0.008043
vt 0.000000 0.000000
vt 1.000000 0.000000
vt 0.000000 0.008043
vt 1.000000 0.008043
vt 0.000000 0.000000
vt 1.000000 0.000000
vt 0.000000 0.008043
vt 1.000000 0.008043
vt 0.000000 0.000000
vt 1.000000 0.000000
vt 0.000000 0.008043
vt 1.000000 0.008043
vt 0.000000 0.000000
vt 1.000000 0.000000
vt 0.000000 0.008043
vt 1.000000 0.008043
vt 0.000000 0.000000
vt 1.000000 0.000000
vt 0.000000 0.008043
vt 1.000000 0.008043
vt 0.000000 0.000000
vt 1.000000 0.000000
vt 0.000000 0.008043
vt 1.000000 0.008043
vt 0.000000 0.000000
vt 1.000000 0.000000
vt 0.000000 0.008043
vt 1.000000 0.008043
vt 0.000000 0.000000
vt 1.000000 0.000000
vt 0.000000 0.008043
vt 1.000000 0.008043
vt 0.000000 0.000000
vt 1.000000 0.000000
vt 0.000000 0.008043
vt 1.000000 0.008043
vt 0.000000 0.000000
vt 1.000000 0.000000
vt 1.000000 0.004181
vt 0.000000 0.004181
vt 0.000000 0.000000
vt 0.009899 0.000000
vt 0.009899 1.000000
vt 0.000000 1.000000
vt 0.000000 0.000000
vt 0.009899 0.000000
vt 0.009899 1.000000
vt 0.000000 1.000000
vt 0.000000 0.000000
vt 0.009899 0.000000
vt 0.009899 1.000000
vt 0.000000 1.000000
vt 0.000000 0.000000
vt 1.000000 0.000000
vt 1.000000 0.015223
vt 0.000000 0.015223
vt 0.000000 0.000000
vt 1.000000 0.000000
vt 1.000000 0.015223
vt 0.000000 0.015223
vt 0.000000 0.000000
vt 1.000000 0.000000
vt 1.000000 0.015223
vt 0.000000 0.015223
vt 0.000000 0.000000
vt 0.007087 0.000000
vt 0.007087 1.000000
vt 0.000000 1.000000
vt 0.000000 0.000000
vt 0.007087 0.000000
vt 0.007087 1.000000
vt 0.000000 1.000000
vt 0.000000 0.000000
vt 0.007087 0.000000
vt 0.007087 1.000000
vt 0.000000 1.000000
vt 0.000000 0.000000
vt 0.007463 0.000000
vt 0.007463 1.000000
vt 0.000000 1.000000
vt 0.000000 0.000000
vt 0.007463 0.000000
vt 0.007463 1.000000
vt 0.000000 1.000000
vt 0.000000 0.000000
vt 0.007463 0.000000
vt 0.007463 1.000000
vt 0.000000 1.000000
vt 0.000000 0.000000
vt 0.007463 0.000000
vt 0.007463 1.000000
vt 0.000000 1.000000
vn 0.000000 1.000000 0.000000
vn 0.000000 1.000000 0.000000
vn 0.000000 1.000000 0.000000
vn 0.000000 1.000000 0.000000
vn 0.000000 1.000000 0.000000
vn 0.000000 1.000000 0.000000
vn 0.000000 1.000000 0.000000
vn 0.000000 1.000000 0.000000
vn 0.000000 1.000000 0.000000
vn 0.000000 1.000000 0.000000
vn 0.000000 1.000000 0.000000
vn 0.000000 1.000000 0.000000
vn 0.000000 1.000000 0.000000
vn 0.000000 1.000000 0.000000
vn 0.000000 1.000000 0.000000
vn 0.000000 1.000000 0.000000
vn 0.000000 1.000000 0.000000
vn 0.000000 1.000000 0.000000
vn 0.000000 1.000000 0.000000
vn 0.000000 1.000000 0.000000
vn 0.000000 1.000000 0.000000
vn 0.000000 1.000000 0.000000
vn 0.000000 1.000000 0.000000
vn 0.000000 1.000000 0.000000
vn 0.000000 1.000000 0.000000
vn 0.000000 1.000000 0.000000
vn 0.000000 1.000000 0.000000
vn 0.000000 1.000000 0.000000
vn 0.000000 1.000000 0.000000
vn 0.000000 1.000000 0.000000
vn 0.000000 1.000000 0.000000
vn 0.000000 1.000000 0.000000
vn 0.000000 1.000000 0.000000
vn 0.000000 1.000000 0.000000
vn 0.000000 1.000000 0.000000
vn 0.000000 1.000000 0.000000
vn 0.000000 1.000000 0.000000
vn 0.000000 1.000000 0.000000
vn 0.000000 1.000000 0.000000
vn 0.000000 1.000000 0.000000
vn 0.000000 1.000000 0.000000
vn 0.000000 1.000000 0.000000
vn 0.000000 1.000000 0.000000
vn 0.000000 1.000000 0.000000
vn 0.000000 1.000000 0.000000
vn 0.000000 1.000000 0.000000
vn 0.000000 1.000000 0.000000
vn 0.000000 1.000000 0.000000
vn 0.000000 1.000000 0.000000
vn 0.000000 1.000000 0.000000
vn 0.000000 1.000000 0.000000
vn 0.000000 1.000000 0.000000
vn 0.000000 1.000000 0.000000
vn 0.000000 1.000000 0.000000
vn 0.000000 1.000000 0.000000
vn 0.000000 1.000000 0.000000
vn 0.000000 1.000000 0.000000
vn 0.000000 1.000000 0.000000
vn 0.000000 1.000000 0.000000
vn 0.000000 1.000000 0.000000
vn 0.000000 1.000000 0.000000
vn 0.000000 1.000000 0.000000
vn 0.000000 1.000000 0.000000
vn 0.000000 1.000000 0.000000
vn 0.000000 1.000000 0.000000
vn 0.000000 1.000000 0.000000
vn 0.000000 1.000000 0.000000
vn 0.000000 1.000000 0.000000
vn 0.000000 1.000000 0.000000
vn 0.000000 1.000000 0.000000
vn 0.000000 1.000000 0.000000
vn 0.000000 1.000000 0.000000
vn 0.000000 1.000000 0.000000
vn 0.000000 1.000000 0.000000
vn 0.000000 1.000000 0.000000
vn 0.000000 1.000000 0.000000
vn 0.000000 1.000000 0.000000
vn 0.000000 1.000000 0.000000
vn 0.000000 1.000000 0.000000
vn 0.000000 1.000000 0.000000
vn 0.000000 1.000000 0.000000
vn 0.000000 1.000000 0.000000
vn 0.000000 1.000000 0.000000
vn 0.000000 1.000000 0.000000
vn -0.000000 1.000000 0.000000
vn -0.000000 1.000000 0.000000
vn -0.000000 1.000000 0.000000
vn -0.000000 1.000000 0.000000
vn 0.000000 1.000000 0.000000
vn 0.000000 1.000000 0.000000
vn 0.000000 1.000000 0.000000
vn 0.000000 1.000000 0.000000
vn 0.000000 1.000000 0.000000
vn 0.000000 1.000000 0.000000
vn 0.000000 1.000000 0.000000
vn 0.000000 1.000000 0.000000
vn 0.000000 1.000000 0.000000
vn 0.000000 1.000000 0.000000
vn 0.000000 1.000000 0.000000
vn 0.000000 1.000000 0.000000
vn 0.000000 1.000000 0.000000
vn 0.000000 1.000000 0.000000
vn 0.000000 1.000000 0.000000
vn 0.000000 1.000000 0.000000
vn 0.000000 1.000000 0.000000
vn 0.000000 1.000000 0.000000
vn 0.000000 1.000000 0.000000
vn 0.000000 1.000000 0.000000
vn 0.000000 1.000000 0.000000
vn 0.000000 1.000000 0.000000
vn 0.000000 1.000000 0.000000
vn 0.000000 1.000000 0.000000
vn 0.000000 1.000000 0.000000
vn 0.000000 1.000000 0.000000
vn 0.000000 1.000000 0.000000
vn 0.000000 1.000000 0.000000
vn 0.000000 1.000000 0.000000
vn 0.000000 1.000000 0.000000
vn 0.000000 1.000000 0.000000
vn 0.000000 1.000000 0.000000
vn 0.000000 1.000000 0.000000
vn 0.000000 1.000000 0.000000
vn 0.000000 1.000000 0.000000
vn 0.000000 1.000000 0.000000
vn 0.000000 0.000000 0.000000
vn 0.000000 0.000000 0.000000
vn 0.000000 0.000000 0.000000
vn 0.000000 0.000000 0.000000
vn 0.000000 0.000000 0.000000
vn 0.000000 0.000000 0.000000
vn 0.000000 0.000000 0.000000
vn 0.000000 0.000000 0.000000
vn 0.000000 0.000000 0.000000
vn 0.000000 0.000000 0.000000
vn 0.000000 0.000000 0.000000
vn 0.000000 0.000000 0.000000
vn 0.000000 0.000000 0.000000
vn 0.000000 0.000000 0.000000
vn 0.000000 0.000000 0.000000
vn 0.000000 0.000000 0.000000
s off
g polySurface1
usemtl insideEdge:initialShadingGroup
f 1/1/1 2/2/2 3/3/3
f 3/3/4 2/2/5 4/4/6
f 5/5/7 6/6/8 7/7/9
f 7/7/10 6/6/11 8/8/12
f 9/9/13 10/10/14 11/11/15
f 11/11/16 10/10/17 12/12/18
f 13/13/19 14/14/20 15/15/21
f 15/15/22 14/14/23 16/16/24
f 17/17/25 18/18/26 19/19/27
f 19/19/28 18/18/29 20/20/30
f 21/21/31 22/22/32 23/23/33
f 23/23/34 22/22/35 24/24/36
f 25/25/37 26/26/38 27/27/39
f 27/27/40 26/26/41 28/28/42
f 29/29/43 30/30/44 31/31/45
f 31/31/46 30/30/47 32/32/48
f 33/33/49 34/34/50 35/35/51
f 35/35/52 34/34/53 36/36/54
f 37/37/55 38/38/56 39/39/57
f 39/39/58 38/38/59 40/40/60
f 41/41/61 42/42/62 43/43/63
f 43/43/64 42/42/65 44/44/66
f 45/45/67 46/46/68 47/47/69
f 47/47/70 46/46/71 48/48/72
f 49/49/73 50/50/74 51/51/75
f 51/51/76 50/50/77 52/52/78
f 53/53/79 54/54/80 55/55/81
f 55/55/82 54/54/83 56/56/84
usemtl initialShadingGroup
f 57/57/85 58/58/86 60/59/87 59/60/88
f 61/61/89 62/62/90 64/63/91 63/64/92
f 65/65/93 66/66/94 68/67/95 67/68/96
f 69/69/97 70/70/98 72/71/99 71/72/100
f 73/73/101 74/74/102 76/75/103 75/76/104
f 77/77/105 78/78/106 80/79/107 79/80/108
f 81/81/109 82/82/110 84/83/111 83/84/112
f 85/85/113 86/86/114 88/87/115 87/88/116
f 89/89/117 90/90/118 92/91/119 91/92/120
f 93/93/121 94/94/122 96/95/123 95/96/124
f 97/97/125 98/98/126 100/99/127 99/100/128
f 101/101/129 102/102/130 104/103/131 103/104/132
f 105/105/133 106/106/134 108/107/135 107/108/136
f 109/109/137 110/110/138 112/111/139 111/112/140
