# This file uses centimeters as units for non-parametric coordinates.

mtllib outsideEdge.mtl
g default
v -11.092042 0.000000 -33.729252
v 42.151775 0.000000 -33.729252
v -11.092042 0.000000 -33.861423
v 42.151775 0.000000 -33.861423
v -12.231445 0.000000 35.814404
v 41.012371 0.000000 35.814404
v -12.231445 0.000000 35.682232
v 41.012371 0.000000 35.682232
v -35.217300 0.000000 13.992655
v -35.217300 0.000000 -12.779903
v -35.349472 0.000000 13.992655
v -35.349472 0.000000 -12.779903
v 64.895157 0.000000 13.220692
v 64.895157 0.000000 -10.385124
v 64.878357 0.000000 13.220692
v 64.878357 0.000000 -10.385124
v 62.626392 0.000000 -19.467407
v 59.535725 0.000000 -25.387245
v 62.618900 0.000000 -19.463497
v 59.528233 0.000000 -25.383335
v 55.993145 0.000000 -29.177654
v 49.962383 0.000000 -32.589161
v 55.976688 0.000000 -29.148569
v 49.945927 0.000000 -32.560074
v -18.873734 -0.000099 35.160313
v -22.147114 -0.000099 33.718613
v -18.887203 -0.000099 35.190895
v -22.160583 -0.000099 33.749195
v -25.275074 -0.000083 31.980566
v -27.794188 -0.000083 29.977358
v -25.295874 -0.000083 32.006721
v -27.814987 -0.000083 30.003515
v -30.945963 -0.000072 26.071381
v -32.355057 -0.000072 23.675434
v -30.974770 -0.000072 26.088322
v -32.383862 -0.000072 23.692375
v -33.083355 0.000000 21.733810
v -34.228336 0.000000 18.511330
v -33.114841 0.000000 21.744999
v -34.259823 0.000000 18.522518
v -26.906677 0.000000 -28.582977
v -22.554312 0.000000 -31.129967
v -26.923555 0.000000 -28.611820
v -22.571190 0.000000 -31.158810
v -34.051006 0.000000 -18.977194
v -31.287533 0.000000 -24.176725
v -34.080517 0.000000 -18.992876
v -31.317041 0.000000 -24.192408
v 63.236298 -0.000044 21.436089
v 64.161224 -0.000044 18.663729
v 63.204597 -0.000044 21.425512
v 64.129524 -0.000044 18.653152
v 60.026505 -0.000058 26.786982
v 62.065910 -0.000058 23.913088
v 59.999252 -0.000058 26.767641
v 62.038658 -0.000058 23.893747
v 54.483829 -0.000074 31.714123
v 56.826862 -0.000074 29.931662
v 54.463596 -0.000074 31.687525
v 56.806629 -0.000074 29.905064
v 46.875259 0.000003 35.003113
v 50.538418 0.000003 33.568592
v 46.863071 0.000003 34.971996
v 50.526230 0.000003 33.537476
v -22.242563 -0.000000 -31.204210
v -17.823458 -0.000000 -32.848846
v -22.253630 0.000000 -31.233946
v -17.834524 0.000000 -32.878582
v -16.962879 -0.000000 -33.023033
v -12.313689 -0.000000 -33.809391
v -16.968170 0.000000 -33.054317
v -12.318981 0.000000 -33.840675
v -30.488474 -0.000000 -25.317116
v -27.047588 -0.000000 -28.541033
v -30.510166 0.000000 -25.340269
v -27.069281 0.000000 -28.564186
v -35.610779 -0.000000 -12.636331
v -33.911949 -0.000000 -19.806562
v -35.641655 0.000000 -12.643645
v -33.942825 0.000000 -19.813877
v -18.674967 -0.000000 35.286396
v -15.404347 -0.000000 35.573425
v -18.669395 0.000000 35.222893
v -15.398774 0.000000 35.509922
v -15.450705 -0.000000 35.542542
v -12.180084 -0.000000 35.829571
v -15.445131 0.000000 35.479038
v -12.174511 0.000000 35.766068
v -25.139441 -0.000000 32.136520
v -22.266390 -0.000000 33.725521
v -25.108587 0.000000 32.080738
v -22.235537 0.000000 33.669739
v -30.685587 -0.000000 26.396654
v -28.202589 -0.000000 29.676903
v -30.634760 0.000000 26.358181
v -28.151762 0.000000 29.638430
v -35.324936 -0.000000 14.168161
v -34.322475 -0.000000 18.158197
v -35.263111 0.000000 14.152628
v -34.260651 0.000000 18.142664
v -33.122547 -0.022574 22.039806
v -32.519772 -0.022574 23.522532
v -33.063496 -0.022574 22.015799
v -32.460720 -0.022574 23.498524
v 64.177437 -0.000000 18.642452
v 64.207336 -0.000000 18.646141
v 64.875366 0.000000 12.983751
v 64.905266 0.000000 12.987440
v 41.114418 -0.000000 35.756977
v 41.117817 -0.000000 35.786911
v 46.779545 0.000000 35.113281
v 46.782944 0.000000 35.143215
v 50.720211 -0.000000 33.504299
v 50.732777 -0.000000 33.531685
v 54.229275 0.000000 31.894478
v 54.241840 0.000000 31.921864
v 57.092930 -0.000000 29.827171
v 57.114117 -0.000000 29.848593
v 59.837811 0.000000 27.112272
v 59.858997 0.000000 27.133694
v 61.814758 -0.000000 24.508738
v 61.841728 -0.000000 24.522165
v 63.535400 0.000000 21.052664
v 63.562370 0.000000 21.066092
v 42.041664 -0.000000 -34.119091
v 50.065529 -0.000000 -32.763901
v 42.046715 0.000000 -34.148979
v 50.070580 0.000000 -32.793789
v 62.842850 -0.000000 -19.344234
v 64.971672 -0.000000 -10.608160
v 62.872299 0.000000 -19.351410
v 65.001122 0.000000 -10.615335
v -30.469589 -0.356451 -25.500202
v -31.499487 -0.356451 -24.050455
v -30.444128 -0.356451 -25.479181
v -31.474026 -0.356451 -24.029434
v 56.223129 -0.037992 -29.173038
v 59.915520 -0.037992 -25.287382
v 56.245102 -0.037992 -29.193918
v 59.937492 -0.037992 -25.308262
vt 0.000000 0.000000
vt 1.000000 0.000000
vt 0.000000 0.008043
vt 1.000000 0.008043
vt 0.000000 0.000000
vt 1.000000 0.000000
vt 0.000000 0.008043
vt 1.000000 0.008043
vt 0.000000 0.000000
vt 1.000000 0.000000
vt 0.000000 0.008043
vt 1.000000 0.008043
vt 0.000000 0.000000
vt 1.000000 0.000000
vt 0.000000 0.008043
vt 1.000000 0.008043
vt 0.000000 0.000000
vt 1.000000 0.000000
vt 0.000000 0.008043
vt 1.000000 0.008043
vt 0.000000 0.000000
vt 1.000000 0.000000
vt 0.000000 0.008043
vt 1.000000 0.008043
vt 0.000000 0.000000
vt 1.000000 0.000000
vt 0.000000 0.008043
vt 1.000000 0.008043
vt 0.000000 0.000000
vt 1.000000 0.000000
vt 0.000000 0.008043
vt 1.000000 0.008043
vt 0.000000 0.000000
vt 1.000000 0.000000
vt 0.000000 0.008043
vt 1.000000 0.008043
vt 0.000000 0.000000
vt 1.000000 0.000000
vt 0.000000 0.008043
vt 1.000000 0.008043
vt 0.000000 0.000000
vt 1.000000 0.000000
vt 0.000000 0.008043
vt 1.000000 0.008043
vt 0.000000 0.000000
vt 1.000000 0.000000
vt 0.000000 0.008043
vt 1.000000 0.008043
vt 0.000000 0.000000
vt 1.000000 0.000000
vt 0.000000 0.008043
vt 1.000000 0.008043
vt 0.000000 0.000000
vt 1.000000 0.000000
vt 0.000000 0.008043
vt 1.000000 0.008043
vt 0.000000 0.000000
vt 1.000000 0.000000
vt 0.000000 0.008043
vt 1.000000 0.008043
vt 0.000000 0.000000
vt 1.000000 0.000000
vt 0.000000 0.008043
vt 1.000000 0.008043
vt 0.000000 0.000000
vt 1.000000 0.000000
vt 1.000000 0.002499
vt 0.000000 0.002499
vt 0.000000 0.000000
vt 1.000000 0.000000
vt 1.000000 0.002499
vt 0.000000 0.002499
vt 0.000000 0.000000
vt 1.000000 0.000000
vt 1.000000 0.002499
vt 0.000000 0.002499
vt 0.000000 0.000000
vt 1.000000 0.000000
vt 1.000000 0.002499
vt 0.000000 0.002499
vt 0.000000 0.000000
vt 1.000000 0.000000
vt 1.000000 0.008916
vt 0.000000 0.008916
vt 0.000000 0.000000
vt 1.000000 0.000000
vt 1.000000 0.008916
vt 0.000000 0.008916
vt 0.000000 0.000000
vt 1.000000 0.000000
vt 1.000000 0.008916
vt 0.000000 0.008916
vt 0.000000 0.000000
vt 1.000000 0.000000
vt 1.000000 0.008916
vt 0.000000 0.008916
vt 0.000000 0.000000
vt 1.000000 0.000000
vt 1.000000 0.008916
vt 0.000000 0.008916
vt 0.000000 0.000000
vt 1.000000 0.000000
vt 1.000000 0.008916
vt 0.000000 0.008916
vt 0.000000 0.000000
vt 0.005284 0.000000
vt 0.005284 1.000000
vt 0.000000 1.000000
vt 0.000000 0.000000
vt 0.005284 0.000000
vt 0.005284 1.000000
vt 0.000000 1.000000
vt 0.000000 0.000000
vt 0.005284 0.000000
vt 0.005284 1.000000
vt 0.000000 1.000000
vt 0.000000 0.000000
vt 0.005284 0.000000
vt 0.005284 1.000000
vt 0.000000 1.000000
vt 0.000000 0.000000
vt 0.005284 0.000000
vt 0.005284 1.000000
vt 0.000000 1.000000
vt 0.000000 0.000000
vt 1.000000 0.000000
vt 1.000000 0.004370
vt 0.000000 0.004370
vt 0.000000 0.000000
vt 1.000000 0.000000
vt 1.000000 0.004370
vt 0.000000 0.004370
vt 0.000000 0.000000
vt 1.000000 0.000000
vt 1.000000 0.004370
vt 0.000000 0.004370
vt 0.000000 0.000000
vt 1.000000 0.000000
vt 1.000000 0.004370
vt 0.000000 0.004370
vn 0.000000 1.000000 0.000000
vn 0.000000 1.000000 0.000000
vn 0.000000 1.000000 0.000000
vn 0.000000 1.000000 0.000000
vn 0.000000 1.000000 0.000000
vn 0.000000 1.000000 0.000000
vn 0.000000 1.000000 0.000000
vn 0.000000 1.000000 0.000000
vn 0.000000 1.000000 0.000000
vn 0.000000 1.000000 0.000000
vn 0.000000 1.000000 0.000000
vn 0.000000 1.000000 0.000000
vn 0.000000 1.000000 0.000000
vn 0.000000 1.000000 0.000000
vn 0.000000 1.000000 0.000000
vn 0.000000 1.000000 0.000000
vn 0.000000 1.000000 0.000000
vn 0.000000 1.000000 0.000000
vn 0.000000 1.000000 0.000000
vn 0.000000 1.000000 0.000000
vn 0.000000 1.000000 0.000000
vn 0.000000 1.000000 0.000000
vn 0.000000 1.000000 0.000000
vn 0.000000 1.000000 0.000000
vn 0.000000 1.000000 0.000000
vn 0.000000 1.000000 0.000000
vn 0.000000 1.000000 0.000000
vn 0.000000 1.000000 0.000000
vn 0.000000 1.000000 0.000000
vn 0.000000 1.000000 0.000000
vn 0.000000 1.000000 0.000000
vn 0.000000 1.000000 0.000000
vn 0.000000 1.000000 0.000000
vn 0.000000 1.000000 0.000000
vn 0.000000 1.000000 0.000000
vn 0.000000 1.000000 0.000000
vn 0.000000 1.000000 0.000000
vn 0.000000 1.000000 0.000000
vn 0.000000 1.000000 0.000000
vn 0.000000 1.000000 0.000000
vn 0.000000 1.000000 0.000000
vn 0.000000 1.000000 0.000000
vn 0.000000 1.000000 0.000000
vn 0.000000 1.000000 0.000000
vn 0.000000 1.000000 0.000000
vn 0.000000 1.000000 0.000000
vn 0.000000 1.000000 0.000000
vn 0.000000 1.000000 0.000000
vn 0.000000 1.000000 0.000000
vn 0.000000 1.000000 0.000000
vn 0.000000 1.000000 0.000000
vn 0.000000 1.000000 0.000000
vn 0.000000 1.000000 0.000000
vn 0.000000 1.000000 0.000000
vn 0.000000 1.000000 0.000000
vn 0.000000 1.000000 0.000000
vn 0.000000 1.000000 0.000000
vn 0.000000 1.000000 0.000000
vn 0.000000 1.000000 0.000000
vn 0.000000 1.000000 0.000000
vn 0.000000 1.000000 0.000000
vn 0.000000 1.000000 0.000000
vn 0.000000 1.000000 0.000000
vn 0.000000 1.000000 0.000000
vn 0.000000 1.000000 0.000000
vn 0.000000 1.000000 0.000000
vn 0.000000 1.000000 0.000000
vn 0.000000 1.000000 0.000000
vn 0.000000 1.000000 0.000000
vn 0.000000 1.000000 0.000000
vn 0.000000 1.000000 0.000000
vn 0.000000 1.000000 0.000000
vn 0.000000 1.000000 0.000000
vn 0.000000 1.000000 0.000000
vn 0.000000 1.000000 0.000000
vn 0.000000 1.000000 0.000000
vn 0.000000 1.000000 0.000000
vn 0.000000 1.000000 0.000000
vn 0.000000 1.000000 0.000000
vn 0.000000 1.000000 0.000000
vn 0.000000 1.000000 0.000000
vn 0.000000 1.000000 0.000000
vn 0.000000 1.000000 0.000000
vn 0.000000 1.000000 0.000000
vn 0.000000 1.000000 0.000000
vn 0.000000 1.000000 0.000000
vn 0.000000 1.000000 0.000000
vn 0.000000 1.000000 0.000000
vn 0.000000 1.000000 0.000000
vn 0.000000 1.000000 0.000000
vn 0.000000 1.000000 0.000000
vn 0.000000 1.000000 0.000000
vn 0.000000 1.000000 0.000000
vn 0.000000 1.000000 0.000000
vn 0.000000 1.000000 0.000000
vn 0.000000 1.000000 0.000000
vn 0.000000 1.000000 0.000000
vn 0.000000 1.000000 0.000000
vn 0.000000 1.000000 0.000000
vn 0.000000 1.000000 0.000000
vn 0.000000 1.000000 0.000000
vn 0.000000 1.000000 0.000000
vn 0.000000 1.000000 0.000000
vn 0.000000 1.000000 0.000000
vn 0.000000 1.000000 0.000000
vn 0.000000 1.000000 0.000000
vn 0.000000 1.000000 0.000000
vn 0.000000 1.000000 0.000000
vn 0.000000 1.000000 0.000000
vn 0.000000 1.000000 0.000000
vn 0.000000 1.000000 0.000000
vn 0.000000 1.000000 0.000000
vn -0.000000 1.000000 0.000000
vn -0.000000 1.000000 0.000000
vn -0.000000 1.000000 0.000000
vn -0.000000 1.000000 0.000000
vn -0.000000 1.000000 0.000000
vn -0.000000 1.000000 0.000000
vn -0.000000 1.000000 0.000000
vn -0.000000 1.000000 0.000000
vn -0.000000 1.000000 0.000000
vn -0.000000 1.000000 0.000000
vn -0.000000 1.000000 0.000000
vn -0.000000 1.000000 0.000000
vn -0.000000 1.000000 0.000000
vn -0.000000 1.000000 0.000000
vn -0.000000 1.000000 0.000000
vn -0.000000 1.000000 0.000000
vn -0.000000 1.000000 0.000000
vn -0.000000 1.000000 0.000000
vn -0.000000 1.000000 0.000000
vn -0.000000 1.000000 0.000000
vn 0.000000 1.000000 0.000000
vn 0.000000 1.000000 0.000000
vn 0.000000 1.000000 0.000000
vn 0.000000 1.000000 0.000000
vn -0.000000 1.000000 0.000000
vn -0.000000 1.000000 0.000000
vn -0.000000 1.000000 0.000000
vn -0.000000 1.000000 0.000000
vn -0.000000 1.000000 0.000000
vn -0.000000 1.000000 0.000000
vn -0.000000 1.000000 0.000000
vn -0.000000 1.000000 0.000000
vn -0.000000 1.000000 0.000000
vn -0.000000 1.000000 0.000000
vn -0.000000 1.000000 0.000000
vn -0.000000 1.000000 0.000000
vn -0.000000 1.000000 0.000000
vn -0.000000 1.000000 0.000000
vn -0.000000 1.000000 0.000000
vn -0.000000 1.000000 0.000000
vn -0.000000 1.000000 0.000000
vn -0.000000 1.000000 0.000000
vn -0.000000 1.000000 0.000000
vn -0.000000 1.000000 0.000000
vn -0.000000 1.000000 0.000000
vn -0.000000 1.000000 0.000000
vn -0.000000 1.000000 0.000000
vn -0.000000 1.000000 0.000000
vn -0.000000 1.000000 0.000000
vn -0.000000 1.000000 0.000000
vn -0.000000 1.000000 0.000000
vn -0.000000 1.000000 0.000000
vn 0.000000 1.000000 -0.000000
vn 0.000000 1.000000 -0.000000
vn 0.000000 1.000000 -0.000000
vn 0.000000 1.000000 -0.000000
vn 0.000000 1.000000 0.000000
vn 0.000000 1.000000 0.000000
vn 0.000000 1.000000 0.000000
vn 0.000000 1.000000 0.000000
s off
g polySurface1
usemtl outsideEdge:initialShadingGroup
f 1/1/1 2/2/2 3/3/3
f 3/3/4 2/2/5 4/4/6
f 5/5/7 6/6/8 7/7/9
f 7/7/10 6/6/11 8/8/12
f 9/9/13 10/10/14 11/11/15
f 11/11/16 10/10/17 12/12/18
f 13/13/19 14/14/20 15/15/21
f 15/15/22 14/14/23 16/16/24
f 17/17/25 18/18/26 19/19/27
f 19/19/28 18/18/29 20/20/30
f 21/21/31 22/22/32 23/23/33
f 23/23/34 22/22/35 24/24/36
f 25/25/37 26/26/38 27/27/39
f 27/27/40 26/26/41 28/28/42
f 29/29/43 30/30/44 31/31/45
f 31/31/46 30/30/47 32/32/48
f 33/33/49 34/34/50 35/35/51
f 35/35/52 34/34/53 36/36/54
f 37/37/55 38/38/56 39/39/57
f 39/39/58 38/38/59 40/40/60
f 41/41/61 42/42/62 43/43/63
f 43/43/64 42/42/65 44/44/66
f 45/45/67 46/46/68 47/47/69
f 47/47/70 46/46/71 48/48/72
f 49/49/73 50/50/74 51/51/75
f 51/51/76 50/50/77 52/52/78
f 53/53/79 54/54/80 55/55/81
f 55/55/82 54/54/83 56/56/84
f 57/57/85 58/58/86 59/59/87
f 59/59/88 58/58/89 60/60/90
f 61/61/91 62/62/92 63/63/93
f 63/63/94 62/62/95 64/64/96
usemtl initialShadingGroup
f 65/65/97 66/66/98 68/67/99 67/68/100
f 69/69/101 70/70/102 72/71/103 71/72/104
f 73/73/105 74/74/106 76/75/107 75/76/108
f 77/77/109 78/78/110 80/79/111 79/80/112
f 81/81/113 82/82/114 84/83/115 83/84/116
f 85/85/117 86/86/118 88/87/119 87/88/120
f 89/89/121 90/90/122 92/91/123 91/92/124
f 93/93/125 94/94/126 96/95/127 95/96/128
f 97/97/129 98/98/130 100/99/131 99/100/132
f 101/101/133 102/102/134 104/103/135 103/104/136
f 105/105/137 106/106/138 108/107/139 107/108/140
f 109/109/141 110/110/142 112/111/143 111/112/144
f 113/113/145 114/114/146 116/115/147 115/116/148
f 117/117/149 118/118/150 120/119/151 119/120/152
f 121/121/153 122/122/154 124/123/155 123/124/156
f 125/125/157 126/126/158 128/127/159 127/128/160
f 129/129/161 130/130/162 132/131/163 131/132/164
f 133/133/165 134/134/166 136/135/167 135/136/168
f 137/137/169 138/138/170 140/139/171 139/140/172
