# This file uses centimeters as units for non-parametric coordinates.

mtllib branch2.mtl
g default
v -7.912129 6.236282 2.946163
v -8.005650 6.269020 2.876450
v -8.124632 6.291845 2.876450
v -8.223627 6.296042 2.946163
v -8.264822 6.280005 3.058961
v -8.232486 6.249860 3.171757
v -8.138964 6.217124 3.241471
v -8.019983 6.194297 3.241470
v -7.920988 6.190101 3.171757
v -7.879793 6.206138 3.058960
v -7.385537 9.135790 3.560401
v -7.450934 9.219564 3.502241
v -7.535152 9.305475 3.516519
v -7.606025 9.360708 3.597785
v -7.636482 9.364165 3.714994
v -7.614886 9.314527 3.823380
v -7.549489 9.230752 3.881539
v -7.465270 9.144840 3.867260
v -7.394395 9.089607 3.785995
v -7.363941 9.086150 3.668785
v -8.072306 6.243072 3.058961
v -6.166030 10.340597 3.824667
v -6.227821 10.443214 3.806504
v -6.314843 10.514492 3.851483
v -6.393865 10.527209 3.942419
v -6.434718 10.476521 4.044588
v -6.421778 10.381770 4.118959
v -6.359994 10.279147 4.137135
v -6.272965 10.207854 4.092164
v -6.193937 10.195134 4.001220
v -6.153095 10.245841 3.899045
v -4.679770 11.456014 4.961376
v -4.792364 11.478913 4.922947
v -4.906556 11.496768 4.959241
v -4.978763 11.502760 5.056355
v -4.981370 11.494598 5.177187
v -4.913399 11.475399 5.275616
v -4.800794 11.452499 5.314020
v -4.686571 11.434639 5.277746
v -4.614381 11.428649 5.180647
v -4.611771 11.436811 5.059805
v -4.395081 13.046259 5.074949
v -4.507666 13.069158 5.036477
v -4.511874 13.055949 5.232051
v -4.621846 13.087010 5.072785
v -4.694070 13.093004 5.169919
v -4.696675 13.084840 5.290754
v -4.628712 13.065644 5.389176
v -4.516102 13.042744 5.427568
v -4.401860 13.024879 5.391306
v -4.329667 13.018889 5.294203
v -4.327059 13.027052 5.173378
vt 0.559410 0.840862
vt 0.546115 0.840863
vt 0.558189 0.504335
vt 0.547337 0.496656
vt 0.566969 0.510548
vt 0.535360 0.840862
vt 0.664704 0.343669
vt 0.570165 0.840862
vt 0.673485 0.352838
vt 0.538557 0.490444
vt 0.653852 0.336904
vt 0.676838 0.360908
vt 0.645073 0.335125
vt 0.785313 0.179963
vt 0.797989 0.180349
vt 0.810596 0.179625
vt 0.818322 0.178071
vt 0.795792 0.004271
vt 0.808399 0.003546
vt 0.816127 0.001992
vt 0.783118 0.003885
vt 0.777408 0.178618
vt 0.775211 0.002540
vt 0.288234 0.001992
vt 0.300878 0.001992
vt 0.288234 0.352411
vt 0.300878 0.354784
vt 0.313522 0.352411
vt 0.306753 0.503843
vt 0.313522 0.001992
vt 0.316771 0.495774
vt 0.294490 0.507729
vt 0.321336 0.346198
vt 0.399903 0.666028
vt 0.386732 0.664236
vt 0.321336 0.001992
vt 0.410612 0.667583
vt 0.376126 0.662891
vt 0.375931 0.842107
vt 0.362759 0.840315
vt 0.386639 0.843661
vt 0.022671 0.001992
vt 0.021449 0.338519
vt 0.009376 0.001992
vt 0.030229 0.332307
vt 0.010597 0.346198
vt 0.033426 0.001992
vt 0.127965 0.479837
vt 0.117112 0.486604
vt 0.136745 0.478058
vt 0.001817 0.352411
vt 0.281470 0.666576
vt 0.260887 0.668305
vt 0.108332 0.495773
vt 0.273566 0.667921
vt 0.248278 0.667582
vt 0.258690 0.844384
vt 0.246081 0.843661
vt 0.271371 0.843999
vt 0.279275 0.842654
vt 0.515540 0.001992
vt 0.515540 0.329934
vt 0.502897 0.001992
vt 0.528184 0.001992
vt 0.502897 0.332307
vt 0.528184 0.332307
vt 0.509152 0.478058
vt 0.521416 0.481947
vt 0.429414 0.664784
vt 0.416242 0.666576
vt 0.440215 0.842654
vt 0.453385 0.840863
vt 0.770204 0.859367
vt 0.778019 0.848612
vt 0.790662 0.866014
vt 0.790662 0.844504
vt 0.770204 0.872662
vt 0.803306 0.848612
vt 0.778019 0.883417
vt 0.811120 0.859367
vt 0.790662 0.887525
vt 0.811120 0.872661
vt 0.803306 0.883417
vt 0.756880 0.882972
vt 0.744273 0.887133
vt 0.744093 0.865815
vt 0.731599 0.883144
vt 0.764607 0.872263
vt 0.723691 0.872536
vt 0.764495 0.859092
vt 0.723579 0.859365
vt 0.756591 0.848488
vt 0.731301 0.848656
vt 0.743910 0.844504
vt 0.816717 0.998008
vt 0.899804 0.844504
vt 0.910408 0.852407
vn 0.609401 0.056853 -0.790821
vn 0.610959 0.056240 -0.789662
vn 0.613611 -0.065360 -0.786899
vn 0.572512 -0.107797 -0.812779
vn 0.038444 0.200403 -0.978959
vn 0.038444 0.200403 -0.978959
vn 0.039193 0.201101 -0.978786
vn 0.035476 0.206170 -0.977873
vn -0.545771 0.274877 -0.791566
vn -0.547305 0.275018 -0.790457
vn -0.551656 0.385239 -0.739775
vn -0.510432 0.435759 -0.741332
vn -0.920513 0.249445 -0.300721
vn -0.920927 0.249329 -0.299548
vn -0.936460 0.244286 -0.251728
vn -0.936788 0.244164 -0.250624
vn -0.944270 0.125596 0.304271
vn -0.956406 0.140326 0.256118
vn -0.944592 0.125956 0.303118
vn -0.956648 0.140651 0.255033
vn -0.607976 -0.049381 0.792419
vn -0.610317 0.069558 0.789098
vn -0.609424 -0.048793 0.791342
vn -0.573626 0.106130 0.812213
vn -0.038442 -0.200403 0.978959
vn -0.034752 -0.202389 0.978688
vn -0.038442 -0.200403 0.978959
vn -0.037190 -0.199217 0.979249
vn 0.547198 -0.267400 0.793140
vn 0.557936 -0.376561 0.739534
vn 0.548848 -0.267533 0.791954
vn 0.522769 -0.420354 0.741630
vn 0.924200 -0.230082 0.304821
vn 0.941215 -0.224379 0.252522
vn 0.924673 -0.229944 0.303490
vn 0.941587 -0.224234 0.251264
vn 0.947959 -0.106240 -0.300144
vn 0.948328 -0.106643 -0.298834
vn 0.960897 -0.121775 -0.248692
vn 0.961170 -0.122141 -0.247454
vn -0.184441 -0.961428 -0.204053
vn -0.184448 -0.961426 -0.204057
vn -0.184445 -0.961427 -0.204055
vn -0.184442 -0.961429 -0.204049
vn -0.184447 -0.961427 -0.204050
vn -0.184444 -0.961426 -0.204060
vn -0.184438 -0.961428 -0.204058
vn -0.184443 -0.961428 -0.204053
vn -0.184450 -0.961425 -0.204058
vn -0.184448 -0.961426 -0.204057
vn -0.184450 -0.961425 -0.204057
vn 0.175779 0.981929 0.070118
vn 0.175788 0.981929 0.070106
vn 0.175792 0.981927 0.070121
vn 0.175803 0.981925 0.070111
vn 0.175793 0.981926 0.070124
vn 0.175790 0.981927 0.070129
vn 0.175784 0.981928 0.070122
vn 0.175792 0.981927 0.070118
vn 0.175801 0.981925 0.070123
vn 0.175794 0.981926 0.070128
vn 0.175794 0.981926 0.070129
vn 0.404132 0.078025 -0.911367
vn 0.420160 0.093228 -0.902648
vn 0.010685 0.542056 -0.840274
vn 0.007924 0.540550 -0.841275
vn -0.410345 0.781556 -0.469881
vn -0.395971 0.797277 -0.455583
vn -0.638898 0.745961 -0.188020
vn -0.664837 0.741018 0.094254
vn -0.642518 0.745474 -0.177311
vn -0.658018 0.745406 0.106688
vn -0.661125 0.623522 0.417294
vn -0.663322 0.409029 0.626657
vn -0.659597 0.616903 0.429375
vn -0.673804 0.397089 0.623144
vn -0.410295 -0.081920 0.908266
vn -0.421452 -0.093976 0.901968
vn 0.001200 -0.525901 0.850545
vn 0.001379 -0.537971 0.842962
vn 0.424103 -0.768175 0.479629
vn 0.408007 -0.785993 0.464484
vn 0.646488 -0.738946 0.189770
vn 0.649382 -0.738950 0.179597
vn 0.675526 -0.732244 -0.086507
vn 0.670677 -0.735398 -0.096867
vn 0.669122 -0.616137 -0.415513
vn 0.667211 -0.610652 -0.426536
vn 0.662124 -0.409589 -0.627558
vn 0.677160 -0.394915 -0.620883
vn 0.359277 0.227551 -0.905064
vn 0.344018 0.131271 -0.929742
vn -0.069707 0.774854 -0.628285
vn -0.076491 0.778095 -0.623472
vn -0.353436 0.878701 -0.320887
vn -0.355266 0.878876 -0.318377
vn -0.595878 0.801860 0.044153
vn -0.594693 0.802886 0.041406
vn -0.765584 0.273189 0.582450
vn -0.789773 0.191518 0.582734
vn -0.358808 -0.226732 0.905455
vn -0.343967 -0.132404 0.929600
vn 0.084985 -0.747387 0.658931
vn 0.090690 -0.750218 0.654941
vn 0.395428 -0.849230 0.349922
vn 0.397075 -0.849409 0.347614
vn 0.633510 -0.772672 -0.040536
vn 0.632759 -0.773388 -0.038575
vn 0.766316 -0.270818 -0.582595
vn 0.788788 -0.194893 -0.582950
vn 0.325018 0.009326 -0.945662
vn 0.325034 0.009322 -0.945656
vn -0.283844 0.118744 -0.951490
vn -0.283850 0.118745 -0.951488
vn -0.283970 0.118774 -0.951448
vn -0.283977 0.118776 -0.951446
vn -0.783549 0.182685 -0.593867
vn -0.783548 0.182685 -0.593867
vn -0.783544 0.182685 -0.593874
vn -0.783543 0.182684 -0.593874
vn -0.984193 0.176858 -0.009282
vn -0.984193 0.176858 -0.009281
vn -0.984193 0.176858 -0.009273
vn -0.984193 0.176858 -0.009272
vn -0.808910 0.103483 0.578754
vn -0.808910 0.103483 0.578754
vn -0.324400 -0.009463 0.945873
vn -0.324395 -0.009463 0.945875
vn 0.283629 -0.118720 0.951557
vn 0.283622 -0.118720 0.951559
vn 0.283495 -0.118709 0.951598
vn 0.283488 -0.118709 0.951600
vn 0.783574 -0.182694 0.593831
vn 0.783574 -0.182694 0.593831
vn 0.783572 -0.182694 0.593833
vn 0.783572 -0.182694 0.593833
vn 0.984190 -0.176872 0.009308
vn 0.984190 -0.176872 0.009308
vn 0.984190 -0.176870 0.009292
vn 0.984190 -0.176870 0.009291
vn 0.808709 -0.103423 -0.579046
vn 0.808705 -0.103421 -0.579052
s 1
g pCylinder2
usemtl initialShadingGroup
f 1/8/1 2/1/2 11/5/3
f 11/5/3 2/1/2 12/3/4
s 2
f 2/1/5 3/2/6 12/3/7
f 12/3/7 3/2/6 13/4/8
s 3
f 3/2/9 4/6/10 13/4/11
f 13/4/11 4/6/10 14/10/12
s 4
f 4/24/13 5/25/14 14/26/15
f 14/26/15 5/25/14 15/27/16
s 5
f 6/30/17 16/28/18 5/25/19
f 5/25/19 16/28/18 15/27/20
s 6
f 7/36/21 17/33/22 6/30/23
f 6/30/23 17/33/22 16/28/24
s 7
f 8/42/25 18/43/26 7/44/27
f 7/44/27 18/43/26 17/46/28
s 8
f 9/47/29 19/45/30 8/42/31
f 8/42/31 19/45/30 18/43/32
s 9
f 10/61/33 20/62/34 9/63/35
f 9/63/35 20/62/34 19/65/36
s 10
f 10/61/37 1/64/38 20/62/39
f 20/62/39 1/64/38 11/66/40
s 11
f 2/73/41 1/74/42 21/75/43
f 3/77/44 2/73/41 21/75/43
f 4/79/45 3/77/44 21/75/43
f 5/81/46 4/79/45 21/75/43
f 6/83/47 5/81/46 21/75/43
f 7/82/48 6/83/47 21/75/43
f 8/80/49 7/82/48 21/75/43
f 9/78/50 8/80/49 21/75/43
f 10/76/51 9/78/50 21/75/43
f 1/74/42 10/76/51 21/75/43
s 12
f 42/84/52 43/85/53 44/86/54
f 43/85/53 45/87/55 44/86/54
f 45/87/55 46/89/56 44/86/54
f 46/89/56 47/91/57 44/86/54
f 47/91/57 48/93/58 44/86/54
f 48/93/58 49/94/59 44/86/54
f 49/94/59 50/92/60 44/86/54
f 50/92/60 51/90/61 44/86/54
f 51/90/61 52/88/62 44/86/54
f 52/88/62 42/84/52 44/86/54
s 1
f 11/5/3 12/3/4 22/9/63
f 22/9/63 12/3/4 23/7/64
s 2
f 12/3/7 13/4/8 23/7/65
f 23/7/65 13/4/8 24/11/66
s 3
f 14/10/12 25/13/67 13/4/11
f 13/4/11 25/13/67 24/11/68
s 13
f 15/27/69 26/29/70 14/26/71
f 14/26/71 26/29/70 25/32/72
s 14
f 16/28/73 27/31/74 15/27/75
f 15/27/75 27/31/74 26/29/76
s 6
f 17/46/22 28/49/77 16/51/24
f 16/51/24 28/49/77 27/54/78
s 7
f 17/46/28 18/43/26 28/49/79
f 28/49/79 18/43/26 29/48/80
s 8
f 18/43/32 19/45/30 29/48/81
f 29/48/81 19/45/30 30/50/82
s 15
f 19/65/83 20/62/84 30/67/85
f 30/67/85 20/62/84 31/68/86
s 16
f 20/62/87 11/66/88 31/68/89
f 31/12/89 11/5/88 22/9/90
s 1
f 23/7/64 33/15/91 22/9/63
f 22/9/63 33/15/91 32/16/92
s 2
f 24/11/66 34/14/93 23/7/65
f 23/7/65 34/14/93 33/15/94
s 3
f 24/11/68 25/13/67 34/14/95
f 34/38/95 25/32/67 35/35/96
s 13
f 25/32/72 26/29/70 35/35/97
f 35/35/97 26/29/70 36/34/98
s 14
f 26/29/76 27/31/74 36/34/99
f 36/34/99 27/31/74 37/37/100
s 6
f 27/54/78 28/49/77 37/56/101
f 37/56/101 28/49/77 38/53/102
s 7
f 28/49/79 29/48/80 38/53/103
f 38/53/103 29/48/80 39/55/104
s 8
f 30/50/82 40/52/105 29/48/81
f 29/95/81 40/96/105 39/97/106
s 15
f 31/68/86 41/69/107 30/67/85
f 30/67/85 41/69/107 40/70/108
s 16
f 22/9/90 32/16/109 31/12/89
f 31/12/89 32/16/109 41/17/110
s 1
f 32/16/92 33/15/91 42/19/111
f 42/19/111 33/15/91 43/18/112
s 17
f 33/15/113 34/14/114 43/18/115
f 43/18/115 34/14/114 45/21/116
s 18
f 34/14/117 35/22/118 45/21/119
f 45/21/119 35/22/118 46/23/120
s 19
f 35/35/121 36/34/122 46/40/123
f 46/40/123 36/34/122 47/39/124
s 14
f 36/34/99 37/37/100 47/39/125
f 47/39/125 37/37/100 48/41/126
s 6
f 37/56/101 38/53/102 48/58/127
f 48/58/127 38/53/102 49/57/128
s 20
f 38/53/129 39/55/130 49/57/131
f 49/57/131 39/55/130 50/59/132
s 21
f 39/55/133 40/52/134 50/59/135
f 50/59/135 40/52/134 51/60/136
s 22
f 40/70/137 41/69/138 51/71/139
f 51/71/139 41/69/138 52/72/140
s 16
f 41/17/110 32/16/109 52/20/141
f 52/20/141 32/16/109 42/19/142
g default
v -7.912129 6.236282 2.946163
v -8.005650 6.269020 2.876450
v -8.124632 6.291845 2.876450
v -8.223627 6.296042 2.946163
v -8.264822 6.280005 3.058961
v -8.232486 6.249860 3.171757
v -8.138964 6.217124 3.241471
v -8.019983 6.194297 3.241470
v -7.920988 6.190101 3.171757
v -7.879793 6.206138 3.058960
v -7.385537 9.135790 3.560401
v -7.450934 9.219564 3.502241
v -7.535152 9.305475 3.516519
v -7.606025 9.360708 3.597785
v -7.636482 9.364165 3.714994
v -7.614886 9.314527 3.823380
v -7.549489 9.230752 3.881539
v -7.465270 9.144840 3.867260
v -7.394395 9.089607 3.785995
v -7.363941 9.086150 3.668785
v -8.072306 6.243072 3.058961
v -6.166030 10.340597 3.824667
v -6.227821 10.443214 3.806504
v -6.314843 10.514492 3.851483
v -6.393865 10.527209 3.942419
v -6.434718 10.476521 4.044588
v -6.421778 10.381770 4.118959
v -6.359994 10.279147 4.137135
v -6.272965 10.207854 4.092164
v -6.193937 10.195134 4.001220
v -6.153095 10.245841 3.899045
v -4.679770 11.456014 4.961376
v -4.792364 11.478913 4.922947
v -4.906556 11.496768 4.959241
v -4.978763 11.502760 5.056355
v -4.981370 11.494598 5.177187
v -4.913399 11.475399 5.275616
v -4.800794 11.452499 5.314020
v -4.686571 11.434639 5.277746
v -4.614381 11.428649 5.180647
v -4.611771 11.436811 5.059805
v -4.395081 13.046259 5.074949
v -4.507666 13.069158 5.036477
v -4.511874 13.055949 5.232051
v -4.621846 13.087010 5.072785
v -4.694070 13.093004 5.169919
v -4.696675 13.084840 5.290754
v -4.628712 13.065644 5.389176
v -4.516102 13.042744 5.427568
v -4.401860 13.024879 5.391306
v -4.329667 13.018889 5.294203
v -4.327059 13.027052 5.173378
vt 0.559410 0.840862
vt 0.546115 0.840863
vt 0.558189 0.504335
vt 0.547337 0.496656
vt 0.566969 0.510548
vt 0.535360 0.840862
vt 0.664704 0.343669
vt 0.570165 0.840862
vt 0.673485 0.352838
vt 0.538557 0.490444
vt 0.653852 0.336904
vt 0.676838 0.360908
vt 0.645073 0.335125
vt 0.785313 0.179963
vt 0.797989 0.180349
vt 0.810596 0.179625
vt 0.818322 0.178071
vt 0.795792 0.004271
vt 0.808399 0.003546
vt 0.816127 0.001992
vt 0.783118 0.003885
vt 0.777408 0.178618
vt 0.775211 0.002540
vt 0.288234 0.001992
vt 0.300878 0.001992
vt 0.288234 0.352411
vt 0.300878 0.354784
vt 0.313522 0.352411
vt 0.306753 0.503843
vt 0.313522 0.001992
vt 0.316771 0.495774
vt 0.294490 0.507729
vt 0.321336 0.346198
vt 0.399903 0.666028
vt 0.386732 0.664236
vt 0.321336 0.001992
vt 0.410612 0.667583
vt 0.376126 0.662891
vt 0.375931 0.842107
vt 0.362759 0.840315
vt 0.386639 0.843661
vt 0.022671 0.001992
vt 0.021449 0.338519
vt 0.009376 0.001992
vt 0.030229 0.332307
vt 0.010597 0.346198
vt 0.033426 0.001992
vt 0.127965 0.479837
vt 0.117112 0.486604
vt 0.136745 0.478058
vt 0.001817 0.352411
vt 0.281470 0.666576
vt 0.260887 0.668305
vt 0.108332 0.495773
vt 0.273566 0.667921
vt 0.248278 0.667582
vt 0.258690 0.844384
vt 0.246081 0.843661
vt 0.271371 0.843999
vt 0.279275 0.842654
vt 0.515540 0.001992
vt 0.515540 0.329934
vt 0.502897 0.001992
vt 0.528184 0.001992
vt 0.502897 0.332307
vt 0.528184 0.332307
vt 0.509152 0.478058
vt 0.521416 0.481947
vt 0.429414 0.664784
vt 0.416242 0.666576
vt 0.440215 0.842654
vt 0.453385 0.840863
vt 0.770204 0.859367
vt 0.778019 0.848612
vt 0.790662 0.866014
vt 0.790662 0.844504
vt 0.770204 0.872662
vt 0.803306 0.848612
vt 0.778019 0.883417
vt 0.811120 0.859367
vt 0.790662 0.887525
vt 0.811120 0.872661
vt 0.803306 0.883417
vt 0.756880 0.882972
vt 0.744273 0.887133
vt 0.744093 0.865815
vt 0.731599 0.883144
vt 0.764607 0.872263
vt 0.723691 0.872536
vt 0.764495 0.859092
vt 0.723579 0.859365
vt 0.756591 0.848488
vt 0.731301 0.848656
vt 0.743910 0.844504
vt 0.816717 0.998008
vt 0.899804 0.844504
vt 0.910408 0.852407
vn 0.609401 0.056853 -0.790821
vn 0.610959 0.056240 -0.789662
vn 0.613611 -0.065360 -0.786899
vn 0.572512 -0.107797 -0.812779
vn 0.038444 0.200403 -0.978959
vn 0.038444 0.200403 -0.978959
vn 0.039193 0.201101 -0.978786
vn 0.035476 0.206170 -0.977873
vn -0.545771 0.274877 -0.791566
vn -0.547305 0.275018 -0.790457
vn -0.551656 0.385239 -0.739775
vn -0.510432 0.435759 -0.741332
vn -0.920513 0.249445 -0.300721
vn -0.920927 0.249329 -0.299548
vn -0.936460 0.244286 -0.251728
vn -0.936788 0.244164 -0.250624
vn -0.944270 0.125596 0.304271
vn -0.956406 0.140326 0.256118
vn -0.944592 0.125956 0.303118
vn -0.956648 0.140651 0.255033
vn -0.607976 -0.049381 0.792419
vn -0.610317 0.069558 0.789098
vn -0.609424 -0.048793 0.791342
vn -0.573626 0.106130 0.812213
vn -0.038442 -0.200403 0.978959
vn -0.034752 -0.202389 0.978688
vn -0.038442 -0.200403 0.978959
vn -0.037190 -0.199217 0.979249
vn 0.547198 -0.267400 0.793140
vn 0.557936 -0.376561 0.739534
vn 0.548848 -0.267533 0.791954
vn 0.522769 -0.420354 0.741630
vn 0.924200 -0.230082 0.304821
vn 0.941215 -0.224379 0.252522
vn 0.924673 -0.229944 0.303490
vn 0.941587 -0.224234 0.251264
vn 0.947959 -0.106240 -0.300144
vn 0.948328 -0.106643 -0.298834
vn 0.960897 -0.121775 -0.248692
vn 0.961170 -0.122141 -0.247454
vn -0.184441 -0.961428 -0.204053
vn -0.184448 -0.961426 -0.204057
vn -0.184445 -0.961427 -0.204055
vn -0.184442 -0.961429 -0.204049
vn -0.184447 -0.961427 -0.204050
vn -0.184444 -0.961426 -0.204060
vn -0.184438 -0.961428 -0.204058
vn -0.184443 -0.961428 -0.204053
vn -0.184450 -0.961425 -0.204058
vn -0.184448 -0.961426 -0.204057
vn -0.184450 -0.961425 -0.204057
vn 0.175779 0.981929 0.070118
vn 0.175788 0.981929 0.070106
vn 0.175792 0.981927 0.070121
vn 0.175803 0.981925 0.070111
vn 0.175793 0.981926 0.070124
vn 0.175790 0.981927 0.070129
vn 0.175784 0.981928 0.070122
vn 0.175792 0.981927 0.070118
vn 0.175801 0.981925 0.070123
vn 0.175794 0.981926 0.070128
vn 0.175794 0.981926 0.070129
vn 0.404132 0.078025 -0.911367
vn 0.420160 0.093228 -0.902648
vn 0.010685 0.542056 -0.840274
vn 0.007924 0.540550 -0.841275
vn -0.410345 0.781556 -0.469881
vn -0.395971 0.797277 -0.455583
vn -0.638898 0.745961 -0.188020
vn -0.664837 0.741018 0.094254
vn -0.642518 0.745474 -0.177311
vn -0.658018 0.745406 0.106688
vn -0.661125 0.623522 0.417294
vn -0.663322 0.409029 0.626657
vn -0.659597 0.616903 0.429375
vn -0.673804 0.397089 0.623144
vn -0.410295 -0.081920 0.908266
vn -0.421452 -0.093976 0.901968
vn 0.001200 -0.525901 0.850545
vn 0.001379 -0.537971 0.842962
vn 0.424103 -0.768175 0.479629
vn 0.408007 -0.785993 0.464484
vn 0.646488 -0.738946 0.189770
vn 0.649382 -0.738950 0.179597
vn 0.675526 -0.732244 -0.086507
vn 0.670677 -0.735398 -0.096867
vn 0.669122 -0.616137 -0.415513
vn 0.667211 -0.610652 -0.426536
vn 0.662124 -0.409589 -0.627558
vn 0.677160 -0.394915 -0.620883
vn 0.359277 0.227551 -0.905064
vn 0.344018 0.131271 -0.929742
vn -0.069707 0.774854 -0.628285
vn -0.076491 0.778095 -0.623472
vn -0.353436 0.878701 -0.320887
vn -0.355266 0.878876 -0.318377
vn -0.595878 0.801860 0.044153
vn -0.594693 0.802886 0.041406
vn -0.765584 0.273189 0.582450
vn -0.789773 0.191518 0.582734
vn -0.358808 -0.226732 0.905455
vn -0.343967 -0.132404 0.929600
vn 0.084985 -0.747387 0.658931
vn 0.090690 -0.750218 0.654941
vn 0.395428 -0.849230 0.349922
vn 0.397075 -0.849409 0.347614
vn 0.633510 -0.772672 -0.040536
vn 0.632759 -0.773388 -0.038575
vn 0.766316 -0.270818 -0.582595
vn 0.788788 -0.194893 -0.582950
vn 0.325018 0.009326 -0.945662
vn 0.325034 0.009322 -0.945656
vn -0.283844 0.118744 -0.951490
vn -0.283850 0.118745 -0.951488
vn -0.283970 0.118774 -0.951448
vn -0.283977 0.118776 -0.951446
vn -0.783549 0.182685 -0.593867
vn -0.783548 0.182685 -0.593867
vn -0.783544 0.182685 -0.593874
vn -0.783543 0.182684 -0.593874
vn -0.984193 0.176858 -0.009282
vn -0.984193 0.176858 -0.009281
vn -0.984193 0.176858 -0.009273
vn -0.984193 0.176858 -0.009272
vn -0.808910 0.103483 0.578754
vn -0.808910 0.103483 0.578754
vn -0.324400 -0.009463 0.945873
vn -0.324395 -0.009463 0.945875
vn 0.283629 -0.118720 0.951557
vn 0.283622 -0.118720 0.951559
vn 0.283495 -0.118709 0.951598
vn 0.283488 -0.118709 0.951600
vn 0.783574 -0.182694 0.593831
vn 0.783574 -0.182694 0.593831
vn 0.783572 -0.182694 0.593833
vn 0.783572 -0.182694 0.593833
vn 0.984190 -0.176872 0.009308
vn 0.984190 -0.176872 0.009308
vn 0.984190 -0.176870 0.009292
vn 0.984190 -0.176870 0.009291
vn 0.808709 -0.103423 -0.579046
vn 0.808705 -0.103421 -0.579052
s 1
g pCylinder2
f 53/105/143 54/98/144 63/102/145
f 63/102/145 54/98/144 64/100/146
s 2
f 54/98/147 55/99/148 64/100/149
f 64/100/149 55/99/148 65/101/150
s 3
f 55/99/151 56/103/152 65/101/153
f 65/101/153 56/103/152 66/107/154
s 4
f 56/121/155 57/122/156 66/123/157
f 66/123/157 57/122/156 67/124/158
s 5
f 58/127/159 68/125/160 57/122/161
f 57/122/161 68/125/160 67/124/162
s 6
f 59/133/163 69/130/164 58/127/165
f 58/127/165 69/130/164 68/125/166
s 7
f 60/139/167 70/140/168 59/141/169
f 59/141/169 70/140/168 69/143/170
s 8
f 61/144/171 71/142/172 60/139/173
f 60/139/173 71/142/172 70/140/174
s 9
f 62/158/175 72/159/176 61/160/177
f 61/160/177 72/159/176 71/162/178
s 10
f 62/158/179 53/161/180 72/159/181
f 72/159/181 53/161/180 63/163/182
s 11
f 54/170/183 53/171/184 73/172/185
f 55/174/186 54/170/183 73/172/185
f 56/176/187 55/174/186 73/172/185
f 57/178/188 56/176/187 73/172/185
f 58/180/189 57/178/188 73/172/185
f 59/179/190 58/180/189 73/172/185
f 60/177/191 59/179/190 73/172/185
f 61/175/192 60/177/191 73/172/185
f 62/173/193 61/175/192 73/172/185
f 53/171/184 62/173/193 73/172/185
s 12
f 94/181/194 95/182/195 96/183/196
f 95/182/195 97/184/197 96/183/196
f 97/184/197 98/186/198 96/183/196
f 98/186/198 99/188/199 96/183/196
f 99/188/199 100/190/200 96/183/196
f 100/190/200 101/191/201 96/183/196
f 101/191/201 102/189/202 96/183/196
f 102/189/202 103/187/203 96/183/196
f 103/187/203 104/185/204 96/183/196
f 104/185/204 94/181/194 96/183/196
s 1
f 63/102/145 64/100/146 74/106/205
f 74/106/205 64/100/146 75/104/206
s 2
f 64/100/149 65/101/150 75/104/207
f 75/104/207 65/101/150 76/108/208
s 3
f 66/107/154 77/110/209 65/101/153
f 65/101/153 77/110/209 76/108/210
s 13
f 67/124/211 78/126/212 66/123/213
f 66/123/213 78/126/212 77/129/214
s 14
f 68/125/215 79/128/216 67/124/217
f 67/124/217 79/128/216 78/126/218
s 6
f 69/143/164 80/146/219 68/148/166
f 68/148/166 80/146/219 79/151/220
s 7
f 69/143/170 70/140/168 80/146/221
f 80/146/221 70/140/168 81/145/222
s 8
f 70/140/174 71/142/172 81/145/223
f 81/145/223 71/142/172 82/147/224
s 15
f 71/162/225 72/159/226 82/164/227
f 82/164/227 72/159/226 83/165/228
s 16
f 72/159/229 63/163/230 83/165/231
f 83/109/231 63/102/230 74/106/232
s 1
f 75/104/206 85/112/233 74/106/205
f 74/106/205 85/112/233 84/113/234
s 2
f 76/108/208 86/111/235 75/104/207
f 75/104/207 86/111/235 85/112/236
s 3
f 76/108/210 77/110/209 86/111/237
f 86/135/237 77/129/209 87/132/238
s 13
f 77/129/214 78/126/212 87/132/239
f 87/132/239 78/126/212 88/131/240
s 14
f 78/126/218 79/128/216 88/131/241
f 88/131/241 79/128/216 89/134/242
s 6
f 79/151/220 80/146/219 89/153/243
f 89/153/243 80/146/219 90/150/244
s 7
f 80/146/221 81/145/222 90/150/245
f 90/150/245 81/145/222 91/152/246
s 8
f 82/147/224 92/149/247 81/145/223
f 81/192/223 92/193/247 91/194/248
s 15
f 83/165/228 93/166/249 82/164/227
f 82/164/227 93/166/249 92/167/250
s 16
f 74/106/232 84/113/251 83/109/231
f 83/109/231 84/113/251 93/114/252
s 1
f 84/113/234 85/112/233 94/116/253
f 94/116/253 85/112/233 95/115/254
s 17
f 85/112/255 86/111/256 95/115/257
f 95/115/257 86/111/256 97/118/258
s 18
f 86/111/259 87/119/260 97/118/261
f 97/118/261 87/119/260 98/120/262
s 19
f 87/132/263 88/131/264 98/137/265
f 98/137/265 88/131/264 99/136/266
s 14
f 88/131/241 89/134/242 99/136/267
f 99/136/267 89/134/242 100/138/268
s 6
f 89/153/243 90/150/244 100/155/269
f 100/155/269 90/150/244 101/154/270
s 20
f 90/150/271 91/152/272 101/154/273
f 101/154/273 91/152/272 102/156/274
s 21
f 91/152/275 92/149/276 102/156/277
f 102/156/277 92/149/276 103/157/278
s 22
f 92/167/279 93/166/280 103/168/281
f 103/168/281 93/166/280 104/169/282
s 16
f 93/114/252 84/113/251 104/117/283
f 104/117/283 84/113/251 94/116/284
