# This file uses centimeters as units for non-parametric coordinates.

mtllib tree.mtl
g default
v -4.883988 -0.073906 0.000000
v 4.883988 -0.073906 0.000000
v -4.883988 14.473906 0.000000
v 4.883988 14.473906 0.000000
vt 0.001985 0.001992
vt 0.994300 0.001992
vt 0.001985 0.998008
vt 0.994300 0.998008
vn 0.000000 0.000000 1.000000
vn 0.000000 0.000000 1.000000
vn 0.000000 0.000000 1.000000
vn 0.000000 0.000000 1.000000
s 1
g pPlane1
usemtl initialShadingGroup
f 1/1/1 2/2/2 3/3/3
f 3/3/3 2/2/2 4/4/4
g default
v -4.883988 -0.073906 0.000000
v 4.883988 -0.073906 0.000000
v -4.883988 14.473906 0.000000
v 4.883988 14.473906 0.000000
vt 0.001985 0.001992
vt 0.994300 0.001992
vt 0.001985 0.998008
vt 0.994300 0.998008
vn 0.000000 0.000000 1.000000
vn 0.000000 0.000000 1.000000
vn 0.000000 0.000000 1.000000
vn 0.000000 0.000000 1.000000
s 1
g pPlane1
f 5/5/5 6/6/6 7/7/7
f 7/7/7 6/6/6 8/8/8
