# This file uses centimeters as units for non-parametric coordinates.

mtllib building1.mtl
g default
v -12.000000 -0.254279 11.976287
v 12.000000 -0.254279 11.976287
v -12.000000 39.745721 11.976287
v 12.000000 39.745721 11.976287
v -12.000000 39.745721 -11.976287
v 12.000000 39.745721 -11.976287
v -12.000000 -0.254279 -11.976287
v 12.000000 -0.254279 -11.976287
vt 0.001992 0.001864
vt 0.280327 0.001864
vt 0.280327 0.465755
vt 0.001992 0.465755
vt 0.436304 0.748081
vt 0.436304 0.469746
vt 0.714088 0.469746
vt 0.714088 0.748081
vt 0.286734 0.001864
vt 0.565069 0.001864
vt 0.565069 0.465755
vt 0.286734 0.465755
vt 0.152384 0.748081
vt 0.152384 0.469746
vt 0.430168 0.469746
vt 0.430168 0.748081
vt 0.571281 0.001864
vt 0.849065 0.001864
vt 0.849065 0.465755
vt 0.571281 0.465755
vt 0.720223 0.469746
vt 0.998008 0.469746
vt 0.998008 0.933637
vt 0.720223 0.933637
vn 0.000000 0.000000 1.000000
vn 0.000000 0.000000 1.000000
vn 0.000000 0.000000 1.000000
vn 0.000000 0.000000 1.000000
vn 0.000000 1.000000 0.000000
vn 0.000000 1.000000 0.000000
vn 0.000000 1.000000 0.000000
vn 0.000000 1.000000 0.000000
vn 0.000000 0.000000 -1.000000
vn 0.000000 0.000000 -1.000000
vn 0.000000 0.000000 -1.000000
vn 0.000000 0.000000 -1.000000
vn 0.000000 -1.000000 0.000000
vn 0.000000 -1.000000 0.000000
vn 0.000000 -1.000000 0.000000
vn 0.000000 -1.000000 0.000000
vn 1.000000 0.000000 0.000000
vn 1.000000 0.000000 0.000000
vn 1.000000 0.000000 0.000000
vn 1.000000 0.000000 0.000000
vn -1.000000 0.000000 0.000000
vn -1.000000 0.000000 0.000000
vn -1.000000 0.000000 0.000000
vn -1.000000 0.000000 0.000000
s 1
g pCube1
usemtl initialShadingGroup
f 1/1/1 2/2/2 3/4/3
f 3/4/3 2/2/2 4/3/4
s 2
f 3/5/5 4/6/6 5/8/7
f 5/8/7 4/6/6 6/7/8
s 3
f 5/9/9 6/10/10 7/12/11
f 7/12/11 6/10/10 8/11/12
s 4
f 7/13/13 8/14/14 1/16/15
f 1/16/15 8/14/14 2/15/16
s 5
f 2/17/17 8/18/18 4/20/19
f 4/20/19 8/18/18 6/19/20
s 6
f 7/21/21 1/22/22 5/24/23
f 5/24/23 1/22/22 3/23/24
g default
v -12.000000 -0.254279 11.976287
v 12.000000 -0.254279 11.976287
v -12.000000 39.745721 11.976287
v 12.000000 39.745721 11.976287
v -12.000000 39.745721 -11.976287
v 12.000000 39.745721 -11.976287
v -12.000000 -0.254279 -11.976287
v 12.000000 -0.254279 -11.976287
vt 0.001992 0.001864
vt 0.280327 0.001864
vt 0.280327 0.465755
vt 0.001992 0.465755
vt 0.436304 0.748081
vt 0.436304 0.469746
vt 0.714088 0.469746
vt 0.714088 0.748081
vt 0.286734 0.001864
vt 0.565069 0.001864
vt 0.565069 0.465755
vt 0.286734 0.465755
vt 0.152384 0.748081
vt 0.152384 0.469746
vt 0.430168 0.469746
vt 0.430168 0.748081
vt 0.571281 0.001864
vt 0.849065 0.001864
vt 0.849065 0.465755
vt 0.571281 0.465755
vt 0.720223 0.469746
vt 0.998008 0.469746
vt 0.998008 0.933637
vt 0.720223 0.933637
vn 0.000000 0.000000 1.000000
vn 0.000000 0.000000 1.000000
vn 0.000000 0.000000 1.000000
vn 0.000000 0.000000 1.000000
vn 0.000000 1.000000 0.000000
vn 0.000000 1.000000 0.000000
vn 0.000000 1.000000 0.000000
vn 0.000000 1.000000 0.000000
vn 0.000000 0.000000 -1.000000
vn 0.000000 0.000000 -1.000000
vn 0.000000 0.000000 -1.000000
vn 0.000000 0.000000 -1.000000
vn 0.000000 -1.000000 0.000000
vn 0.000000 -1.000000 0.000000
vn 0.000000 -1.000000 0.000000
vn 0.000000 -1.000000 0.000000
vn 1.000000 0.000000 0.000000
vn 1.000000 0.000000 0.000000
vn 1.000000 0.000000 0.000000
vn 1.000000 0.000000 0.000000
vn -1.000000 0.000000 0.000000
vn -1.000000 0.000000 0.000000
vn -1.000000 0.000000 0.000000
vn -1.000000 0.000000 0.000000
s 1
g pCube1
f 9/25/25 10/26/26 11/28/27
f 11/28/27 10/26/26 12/27/28
s 2
f 11/29/29 12/30/30 13/32/31
f 13/32/31 12/30/30 14/31/32
s 3
f 13/33/33 14/34/34 15/36/35
f 15/36/35 14/34/34 16/35/36
s 4
f 15/37/37 16/38/38 9/40/39
f 9/40/39 16/38/38 10/39/40
s 5
f 10/41/41 16/42/42 12/44/43
f 12/44/43 16/42/42 14/43/44
s 6
f 15/45/45 9/46/46 13/48/47
f 13/48/47 9/46/46 11/47/48
